<?xml version="1.0" encoding="UTF-8" standalone="no"?>
<svg
   version="1.1"
   width="92"
   height="60"
   viewBox="0 0 92 60"
   id="svg25"
   sodipodi:docname="dc_motor.svg"
   inkscape:version="1.4.2 (f4327f4, 2025-05-13)"
   xmlns:inkscape="http://www.inkscape.org/namespaces/inkscape"
   xmlns:sodipodi="http://sodipodi.sourceforge.net/DTD/sodipodi-0.dtd"
   xmlns="http://www.w3.org/2000/svg"
   xmlns:svg="http://www.w3.org/2000/svg">
  <defs
     id="defs25" />
  <!-- DC motor en vue laterale (apres rotation 90° CCW + translate de la
       version portrait). Rotor cote gauche, terminals M+/M- cote droit.
       viewBox (0, 0, 92, 60) pour rester compatible avec la convention
       de placement (= translate = haut-gauche du body visible). -->
  <g
     id="component">
    <!-- bbox invisible pour component-body (couvre la zone motor visible) -->
    <rect
       id="component-body"
       x="1"
       y="1"
       width="90"
       height="58"
       fill="none"
       stroke="none" />
    <!-- ─── Contenu visuel pivote 90° CCW autour de (80, 59), puis
         translate(-34, -29) pour amener le coin haut-gauche du body en (1,1) ─── -->
    <g transform="translate(-34, -29) rotate(-90, 80, 59)">
      <g
         transform="matrix(0 -1 1 0 52.0327 122.4)"
         id="g6">
        <path
           d="m107.157 25.2206h12.975v4.56192h-12.975z"
           fill="#878787"
           id="path3" />
        <path
           d="m107.157 25.2206h.451v4.56192h-.451z"
           fill="#2d2d2d"
           id="path4" />
        <path
           d="m107.157 29.2575h12.975v.521991h-12.975z"
           opacity=".35"
           id="path5" />
        <path
           d="m119.835 26.4776c0 .254996-.275.460992-.617.460992l-12.438.000008c-.34 0-.617-.187997-.617-.442993v-.368994c0-.255996.277-.478992.617-.478992h12.438c.342 0 .617.206997.617.460992z"
           fill="#fff"
           opacity=".35"
           id="path6" />
      </g>
      <path
         d="m106.687 7.46488c0-1.56097-1.275-2.83395-2.834-2.83395h-.031c-1.561 0-2.836-.929985-2.836-2.06197 0-1.13198-1.273-2.06097-2.834-2.06097l-69.645.000002v54.7001h69.645c1.561 0 2.834-.929985 2.834-2.06197s1.275-2.06097 2.836-2.06097h.031c1.559 0 2.834-1.27498 2.834-2.83595z"
         fill="#6d6d6d"
         stroke="#6d6d6d"
         transform="matrix(0 -1 1 0 52.0327 122.4)"
         id="path7" />
      <path
         d="m99.8469 18.12v.029c0 1.551.60599 3.102 1.34598 3.102.73799 0 1.34598.982 1.34598 2.531l.00004 64.398h4.45293v-63.833c0-1.547-.92599-2.812-2.05497-2.812s-2.05497-1.27-2.05497-2.816v-.031c0-1.549-1.27098-2.814-2.82395-2.814h-2.06097c1.01793-.004 1.84993.697 1.84993 2.246z"
         opacity=".35"
         id="path8" />
      <path
         d="m-98.495003 78.372299h.94v3.04095h-.94z"
         fill="#878787"
         transform="rotate(-90)"
         id="path9" />
      <path
         d="m-94.758003 77.101303h10.242v5.58391h-10.242z"
         fill="#e5e500"
         transform="rotate(-90)"
         id="path10" />
      <g
         transform="matrix(0 -1 1 0 52.0327 122.4)"
         id="g12">
        <path
           d="m24.847 18.8657h2.795v17.9877h-2.795z"
           fill="#e5e500"
           id="path11" />
        <path
           d="m35.158 55.7201v-25.0676h2.726v-5.5839h-2.726v-25.0686h-7.516v25.9996h10.242v3.7189h-10.242v26.0016z"
           fill="#f3ff00"
           id="path12" />
      </g>
      <path
         d="m80.0972 20.676c13.2698 0 24.0206.758 24.0206.758h-48.03817s10.75587-.758 24.01757-.758z"
         fill="#686868"
         opacity=".5"
         id="path13" />
      <path
         d="m69.8714 22.581c1.41698 0 2.56396 1.425 2.56396 3.181l.00004 55.519c0 1.757-1.04898 3.181-2.46696 3.181h-12.79182c-1.41798 0-2.66796-1.424-2.66796-3.181v-55.519c0-1.756 1.14998-3.181 2.56796-3.181z"
         fill="#fff"
         opacity=".16"
         id="path14" />
      <path
         d="m105.595 18.1777c0 .779987-.639 1.41698-1.417 1.41698h-.352c-.777 0-1.417-.637989-1.417-1.41698v-10.49283c0-.779987.64-1.41698 1.417-1.41698h.352c.778 0 1.417.637989 1.417 1.41698z"
         fill="#fff"
         opacity=".16"
         transform="matrix(0 -1 1 0 52.0327 122.4)"
         id="path15" />
      <g
         transform="matrix(0 -1 1 0 52.0327 122.4)"
         id="g17">
        <path
           d="m92.049 24.6596c-1.034 0-1.876-.840986-1.876-1.87497v-8.42186c0-1.03498.842-1.87697 1.876-1.87697s1.876.841986 1.876 1.87697v8.42186c0 1.03297-.842 1.87497-1.876 1.87497z"
           id="path16" />
        <path
           d="m92.049 12.9858c.759 0 1.376.61799 1.376 1.37698v8.42186c0 .759987-.617 1.37498-1.376 1.37498s-1.376-.61499-1.376-1.37498v-8.42186c0-.75998.617-1.37698 1.376-1.37698m0-1c-1.312 0-2.376 1.06398-2.376 2.37696v8.42186c0 1.31198 1.062 2.37496 2.376 2.37496 1.312 0 2.376-1.06198 2.376-2.37496v-8.42186c0-1.31296-1.064-2.37696-2.376-2.37696z"
           fill="#6b6b6b"
           id="path17" />
      </g>
      <g
         transform="matrix(0 -1 1 0 52.0327 122.4)"
         id="g19">
        <path
           d="m92.049 43.2333c-1.034 0-1.876-.841986-1.876-1.87597v-8.42086c0-1.03498.842-1.87697 1.876-1.87697s1.876.841986 1.876 1.87697v8.42086c0 1.03397-.842 1.87597-1.876 1.87597z"
           id="path18" />
        <path
           d="m92.049 31.5595c.759 0 1.376.61799 1.376 1.37698v8.42086c0 .758987-.617 1.37598-1.376 1.37598s-1.376-.61699-1.376-1.37598v-8.42086c0-.75898.617-1.37698 1.376-1.37698m0-1c-1.312 0-2.376 1.06398-2.376 2.37696v8.42086c0 1.31198 1.062 2.37596 2.376 2.37596 1.312 0 2.376-1.06198 2.376-2.37596v-8.42086c0-1.31196-1.064-2.37696-2.376-2.37696z"
           fill="#6b6b6b"
           id="path19" />
      </g>
      <g
         transform="matrix(0 -1 1 0 52.0327 122.4)"
         id="g21">
        <path
           d="m92.049 6.0859c-1.034 0-1.876-.842986-1.876-1.87497v-3.710938h3.752v3.71094c0 1.033978-.842 1.874968-1.876 1.874968z"
           id="path20" />
        <path
           d="m93.425.999983v3.21095c0 .757987-.617 1.37498-1.376 1.37498s-1.376-.61699-1.376-1.37498v-3.21095zm1-.999983h-4.752v4.21093c0 1.31198 1.062 2.37496 2.376 2.37496 1.312 0 2.376-1.06298 2.376-2.37496z"
           fill="#6b6b6b"
           id="path21" />
      </g>
      <g
         transform="matrix(0 -1 1 0 52.0327 122.4)"
         id="g23">
        <path
           d="m90.173 55.2201v-3.711c0-1.03498.842-1.87697 1.876-1.87697s1.876.841986 1.876 1.87697v3.71094z"
           id="path22" />
        <path
           d="m92.049 50.1322c.759 0 1.376.61799 1.376 1.37698v3.21095h-2.752v-3.21103c0-.7589.617-1.3769 1.376-1.3769m0-1c-1.312 0-2.376 1.06198-2.376 2.37696v4.21093h4.752v-4.21099c0-1.3119-1.064-2.3769-2.376-2.3769z"
           fill="#6b6b6b"
           id="path23" />
      </g>
      <!-- 2 terminaux orange (metalliques) -->
      <path
         d="m62.4705 102.516.547991.5h2.99995l.547991-.559v-7.699h-4.09693zm3.398-1.559c0 .746-.60399 1.35-1.34998 1.35-.745988 0-1.34998-.604-1.34998-1.35s.60399-1.35 1.34998-1.35c.74598 0 1.34998.604 1.34998 1.35z"
         fill="#ed8f66"
         id="path24" />
      <path
         d="m93.24 102.516.548991.5h2.99995l.547991-.559v-7.699h-4.09693zm3.399-1.559c0 .746-.60399 1.35-1.34998 1.35s-1.34998-.604-1.34998-1.35.60399-1.35 1.34998-1.35 1.34998.604 1.34998 1.35z"
         fill="#ed8f66"
         id="path25" />
    </g>
    <!-- ─── PINS exposes pour routage (positions APRES rotation CCW + translate) ─
         Coords originales -> rotation autour de (80, 59) -> translate (-34, -29) :
           pin-1 (M+) (64.52, 100.96) -> rotation (121.96, 74.48) -> (87.96, 45.48)
           pin-2 (M-) (95.29, 100.96) -> rotation (121.96, 43.71) -> (87.96, 14.71)
         Pins en dehors du wrapper rotation pour que le loader lise
         directement les coords canvas-finales (frame viewBox 0,0,92,60). -->
    <circle
       id="pin-1-pos"
       cx="87.96"
       cy="45.48"
       r="0.80000001"
       fill="#000083"
       stroke="#000083"
       stroke-width="0.3" />
    <circle
       id="pin-2-pos"
       cx="87.96"
       cy="14.71"
       r="0.80000001"
       fill="#000083"
       stroke="#000083"
       stroke-width="0.3" />
    <!-- Labels silkscreen (a gauche des pins, en clair sur le body) -->
    <text
       id="pin-1-label"
       x="80"
       y="47"
       text-anchor="middle"
       font-family="sans-serif"
       font-size="2.5"
       font-weight="bold"
       fill="#000">M+</text>
    <text
       id="pin-2-label"
       x="80"
       y="16"
       text-anchor="middle"
       font-family="sans-serif"
       font-size="2.5"
       font-weight="bold"
       fill="#000">M−</text>
    <text
       id="component-name"
       x="46"
       y="30"
       text-anchor="middle"
       font-family="sans-serif"
       font-size="0"
       fill="#000" />
  </g>
</svg>
